<svg width="40" height="42" viewBox="0 0 40 42" fill="none" xmlns="http://www.w3.org/2000/svg">
<rect width="40" height="41.3043" rx="10" fill="#C4C4C4" fill-opacity="0.5"/>
<rect x="10" y="23.9131" width="5" height="6.52173" rx="2.5" fill="#727272"/>
<rect x="26.6667" y="23.9131" width="5" height="6.52173" rx="2.5" fill="#727272"/>
<rect x="8.88879" y="20.6521" width="23.8889" height="6.52173" rx="2" fill="#FC9292"/>
<rect x="30.5555" y="18.478" width="1.66667" height="1.63043" rx="0.815216" fill="#FC9292"/>
<rect x="9.44446" y="18.478" width="1.66667" height="1.63043" rx="0.815216" fill="#FC9292"/>
<path d="M11.2177 18.3588C11.8108 16.1832 13.7867 14.6738 16.0417 14.6738H25.625C27.88 14.6738 29.8559 16.1832 30.449 18.3588L30.9781 20.3C31.3249 21.5722 30.3671 22.826 29.0485 22.826H12.6182C11.2995 22.826 10.3418 21.5722 10.6886 20.3L11.2177 18.3588Z" fill="#FC9292"/>
<path d="M13.3333 19.3044C13.3333 17.6476 14.6764 16.3044 16.3333 16.3044H25.3333C26.9901 16.3044 28.3333 17.6476 28.3333 19.3044V19.6523C28.3333 20.2045 27.8855 20.6523 27.3333 20.6523H14.3333C13.781 20.6523 13.3333 20.2045 13.3333 19.6523V19.3044Z" fill="white"/>
<ellipse cx="29.4444" cy="23.9131" rx="1.11111" ry="1.08695" fill="#EBE9B3"/>
<ellipse cx="12.2223" cy="23.9131" rx="1.11111" ry="1.08695" fill="#EBE9B3"/>
<rect x="15.5555" y="25" width="11.1111" height="0.543477" rx="0.271739" fill="#8C8989"/>
<rect x="15.5555" y="23.9131" width="11.1111" height="0.543477" rx="0.271739" fill="#8C8989"/>
<rect x="15.5555" y="22.8262" width="11.1111" height="0.543477" rx="0.271739" fill="#8C8989"/>
</svg>
