<svg width="48" height="48" viewBox="0 0 48 48" fill="none" xmlns="http://www.w3.org/2000/svg">
<path d="M24.3167 46.5C36.5896 46.5 46.4999 36.4048 46.4999 24C46.4999 11.5952 36.5896 1.5 24.3167 1.5C12.0438 1.5 2.13342 11.5952 2.13342 24C2.13342 36.4048 12.0438 46.5 24.3167 46.5Z" stroke="#496ECD" stroke-opacity="0.5" stroke-width="3"/>
<path d="M12.8263 16.9423L24.317 21.2632V35.6665L12.8263 31.0575V16.9423Z" fill="#F09813" fill-opacity="0.5"/>
<path d="M35.8076 16.9423L24.3169 21.2632V35.6665L35.8076 31.0575V16.9423Z" fill="#FFB23F" fill-opacity="0.5"/>
<path d="M24.3169 12.3334L12.8262 16.9424L24.3169 21.2634L35.8076 16.9424L24.3169 12.3334Z" fill="#FFC875" fill-opacity="0.5"/>
<path d="M20.0654 14.0616L18.2269 14.7818L28.9132 19.5349L30.7517 18.8147L20.0654 14.0616Z" fill="#B1B1B1" fill-opacity="0.5"/>
<path d="M30.7517 18.8149L28.9132 19.5351V22.7038L30.7517 21.9837V18.8149Z" fill="#959595" fill-opacity="0.5"/>
</svg>
