<svg width="48" height="48" viewBox="0 0 48 48" fill="none" xmlns="http://www.w3.org/2000/svg">
<path d="M24 46.5C36.2729 46.5 46.1833 36.4048 46.1833 24C46.1833 11.5952 36.2729 1.5 24 1.5C11.7271 1.5 1.81677 11.5952 1.81677 24C1.81677 36.4048 11.7271 46.5 24 46.5Z" stroke="#496ECD" stroke-opacity="0.5" stroke-width="3"/>
<path d="M6.07458 24.5735L19.2068 31.136V39.3999L6.65824 32.1082L6.07458 24.5735Z" fill="#A2EC88"/>
<path d="M7.82544 28.4624L17.3098 32.7159L12.7865 30.893L7.82544 28.4624Z" fill="#70AA5C"/>
<path d="M6.65808 28.9486L16.1425 33.2021L11.6191 31.3792L6.65808 28.9486Z" fill="#70AA5C"/>
<path d="M11.9109 34.2958L18.3311 37.2124L15.2691 35.9624L11.9109 34.2958Z" fill="#70AA5C"/>
<path d="M6.65808 26.032L13.0783 28.9486L10.0163 27.6986L6.65808 26.032Z" fill="#70AA5C"/>
<path d="M32.6306 16.0667L42.8446 19.7125L18.9147 31.1361L6.07434 24.5736L32.6306 16.0667Z" fill="#98DE7F"/>
<path d="M42.8448 19.7124L18.915 31.136L19.2069 39.3999L41.9694 26.2749L42.8448 19.7124Z" fill="#ADFD91"/>
<path d="M26.6246 32.6558L20.6659 36.187L23.3555 34.4412L26.6246 32.6558Z" fill="#70AA5C"/>
<path d="M42.212 21.1514L33.3489 26.2503L37.356 23.7249L42.212 21.1514Z" fill="#70AA5C"/>
<path d="M39.4509 23.5922L30.5878 28.6911L34.5949 26.1657L39.4509 23.5922Z" fill="#70AA5C" fill-opacity="0.75"/>
<path d="M35.2576 28.4624L30.5883 31.1216L32.6987 29.8038L35.2576 28.4624Z" fill="#70AA5C"/>
<path d="M25.9189 29.0015L21.2497 31.6607L23.3601 30.3429L25.9189 29.0015Z" fill="#70AA5C" fill-opacity="0.75"/>
<path d="M30.2961 22.1431C30.2961 24.1566 29.2117 25.3028 26.7941 25.3028C24.3766 25.3028 20.6658 25.858 20.6658 23.8445C20.6658 21.8309 21.7501 20.4417 24.1677 20.4417C26.5853 20.4417 30.2961 20.1295 30.2961 22.1431Z" fill="#7AB963"/>
</svg>
