<svg width="40" height="39" viewBox="0 0 40 39" fill="none" xmlns="http://www.w3.org/2000/svg">
<rect width="40" height="39" rx="10" fill="#C4C4C4" fill-opacity="0.5"/>
<path d="M10.6666 15.5652C10.6666 14.4606 11.5621 13.5652 12.6666 13.5652H18.2666C19.3712 13.5652 20.2666 14.4606 20.2666 15.5652V20.3478H10.6666V15.5652Z" fill="#9079A2"/>
<path d="M20.2666 15.5652C20.2666 14.4606 21.162 13.5652 22.2666 13.5652H27.8666C28.9712 13.5652 29.8666 14.4606 29.8666 15.5652V20.3478H20.2666V15.5652Z" fill="#9079A2"/>
<rect width="1.06666" height="2.60871" transform="matrix(0.999854 -0.0170731 0.0178401 0.999841 11.1769 22.9661)" fill="#999999"/>
<rect x="28.2667" y="22.9568" width="1.06667" height="2.6087" rx="0.533333" fill="#999999"/>
<path d="M8 20.3479H32.5333V22.0001C32.5333 23.1046 31.6379 24.0001 30.5333 24.0001H10C8.89543 24.0001 8 23.1046 8 22.0001V20.3479Z" fill="#9D83B0"/>
<path d="M8 18.0291C8 17.2928 8.59695 16.6958 9.33333 16.6958C10.0697 16.6958 10.6667 17.2928 10.6667 18.0291V24.0001H10C8.89543 24.0001 8 23.1047 8 22.0001V18.0291Z" fill="#9D83B0"/>
<path d="M29.8667 18.0291C29.8667 17.2928 30.4637 16.6958 31.2 16.6958C31.9364 16.6958 32.5334 17.2928 32.5334 18.0291V22.0001C32.5334 23.1047 31.6379 24.0001 30.5334 24.0001H29.8667V18.0291Z" fill="#9D83B0"/>
<rect x="10.1333" y="19.3044" width="20.2667" height="2.6087" rx="1" fill="#866B9A"/>
</svg>
