<svg width="21" height="17" viewBox="0 0 21 17" fill="none" xmlns="http://www.w3.org/2000/svg">
<path d="M16.4004 9.35821C14.3211 11.0305 10.9499 11.0305 8.87058 9.35821C6.79127 7.68588 6.79127 4.97451 8.87058 3.30218C10.9499 1.62986 14.3211 1.62986 16.4004 3.30218C18.4797 4.97451 18.4797 7.68588 16.4004 9.35821ZM9.58987 3.88069C7.90781 5.23351 7.90781 7.42688 9.58987 8.77971C11.2719 10.1325 13.9991 10.1325 15.6811 8.77971C17.3632 7.42688 17.3632 5.23351 15.6811 3.88069C13.9991 2.52786 11.2719 2.52786 9.58987 3.88069Z" fill="#5F5F5F"/>
<rect width="7.24726" height="1.6105" rx="0.5" transform="matrix(0.779243 -0.626722 0.779243 0.626722 3.22314 12.8909)" fill="#5F5F5F"/>
</svg>
