<svg width="38" height="41" viewBox="0 0 38 41" fill="none" xmlns="http://www.w3.org/2000/svg">
<rect width="38" height="41" rx="10" fill="#C4C4C4" fill-opacity="0.5"/>
<rect x="12.1599" y="7.5" width="14.1867" height="22" rx="2" fill="#A7A7A7"/>
<path d="M12.6667 8.99976C12.6667 8.44747 13.1145 7.99976 13.6667 7.99976H15.5851C15.7922 7.99976 15.9601 8.16765 15.9601 8.37476C15.9601 8.58186 16.128 8.74975 16.3351 8.74975H19.2534H22.1718C22.3789 8.74975 22.5467 8.58186 22.5467 8.37476C22.5467 8.16765 22.7146 7.99976 22.9217 7.99976H24.8401C25.3924 7.99976 25.8401 8.44747 25.8401 8.99976V27.9997C25.8401 28.552 25.3924 28.9997 24.8401 28.9997H13.6667C13.1145 28.9997 12.6667 28.552 12.6667 27.9997V8.99976Z" fill="#605E5E"/>
<rect x="18.24" y="7.99976" width="3.04" height="0.499999" rx="0.25" fill="#605E5E"/>
<rect x="16.72" y="7.99976" width="0.506667" height="0.499999" rx="0.25" fill="#605E5E"/>
</svg>
