<svg width="39" height="36" viewBox="0 0 39 36" fill="none" xmlns="http://www.w3.org/2000/svg">
<rect width="39" height="36" rx="10" fill="#C4C4C4" fill-opacity="0.5"/>
<rect width="0.999133" height="10.9905" transform="matrix(0.736029 -0.67695 0.736029 0.67695 10.5801 11.9614)" fill="#C2C4CF"/>
<path d="M9.29309 11.116L10.3962 10.1014L11.3417 11.2609L10.5538 11.9856L9.29309 11.116Z" fill="#C2C4CF"/>
<path d="M10.3962 10.1016L9.29315 11.1161L8.34765 9.95663L9.13557 9.23195L10.3962 10.1016Z" fill="#C2C4CF"/>
<rect width="3.99653" height="13.4883" rx="1.99827" transform="matrix(0.736029 -0.67695 0.736029 0.67695 15.3596 18.3022)" fill="#F96161"/>
<rect width="1.99827" height="10.9905" transform="matrix(0.736029 0.67695 -0.736029 0.67695 25.1932 11.7104)" fill="#C2C4CF"/>
<path d="M23.663 9.12487C24.0542 8.97067 24.5081 9.05106 24.8091 9.32787L29.6056 13.7394L28.1348 15.0921L23.6673 10.9832L21.784 10.8475C21.242 10.8084 21.1199 10.1273 21.6197 9.93031L23.663 9.12487Z" fill="#C2C4CF"/>
<path d="M29.4211 13.2326C29.8276 12.8587 30.4866 12.8587 30.8931 13.2326L31.2596 13.5696C31.6661 13.9435 31.6661 14.5497 31.2596 14.9235L29.0547 16.9514C28.6482 17.3253 27.9891 17.3253 27.5826 16.9514L27.2162 16.6144C26.8097 16.2406 26.8097 15.6344 27.2162 15.2605L29.4211 13.2326Z" fill="#C2C4CF"/>
<rect width="3.99653" height="13.4883" rx="1.99827" transform="matrix(0.736029 0.67695 -0.736029 0.67695 19.6779 15.4304)" fill="#F9D761"/>
</svg>
