<svg width="38" height="38" viewBox="0 0 38 38" fill="none" xmlns="http://www.w3.org/2000/svg">
<rect width="38" height="38" rx="10" fill="#C4C4C4" fill-opacity="0.5"/>
<path d="M13.4268 16.5C13.4268 14.2909 15.2176 12.5 17.4268 12.5H21.0801C23.2892 12.5 25.0801 14.2909 25.0801 16.5V24.5C25.0801 25.6046 24.1847 26.5 23.0801 26.5H15.4268C14.3222 26.5 13.4268 25.6046 13.4268 24.5V16.5Z" fill="#88A7C4"/>
<path d="M13.5491 13.5897C13.9012 12.9879 14.6778 12.7798 15.2836 13.125C15.8894 13.4702 16.0951 14.2379 15.743 14.8397L11.6981 21.7535C11.346 22.3554 10.5694 22.5634 9.96361 22.2183C9.35777 21.8731 9.15208 21.1054 9.50419 20.5035L13.5491 13.5897Z" fill="#88A7C4"/>
<path d="M22.6776 14.8397C22.3255 14.2379 22.5312 13.4702 23.137 13.125C23.7428 12.7798 24.5194 12.9879 24.8715 13.5897L28.9164 20.5035C29.2685 21.1054 29.0628 21.8731 28.457 22.2183C27.8512 22.5634 27.0746 22.3554 26.7225 21.7535L22.6776 14.8397Z" fill="#88A7C4"/>
<path d="M21.28 12.5C21.28 13.0304 21.0665 13.5391 20.6864 13.9142C20.3063 14.2893 19.7909 14.5 19.2534 14.5C18.7158 14.5 18.2004 14.2893 17.8203 13.9142C17.4402 13.5391 17.2267 13.0304 17.2267 12.5L19.2534 12.5H21.28Z" fill="#767676"/>
</svg>
