<svg width="40" height="41" viewBox="0 0 40 41" fill="none" xmlns="http://www.w3.org/2000/svg">
<rect width="40" height="41" rx="10" fill="#C4C4C4" fill-opacity="0.5"/>
<path d="M34.1333 24.3696C34.1333 27.3711 31.7455 29.8044 28.8 29.8044C25.8545 29.8044 23.4667 27.3711 23.4667 24.3696C23.4667 21.368 25.8545 18.9348 28.8 18.9348C31.7455 18.9348 34.1333 21.368 34.1333 24.3696ZM24.7646 24.3696C24.7646 26.6407 26.5713 28.4818 28.8 28.4818C31.0287 28.4818 32.8354 26.6407 32.8354 24.3696C32.8354 22.0985 31.0287 20.2574 28.8 20.2574C26.5713 20.2574 24.7646 22.0985 24.7646 24.3696Z" fill="#4E4D4D" fill-opacity="0.5"/>
<path d="M15.4667 24.3696C15.4667 27.3711 13.0789 29.8044 10.1334 29.8044C7.18786 29.8044 4.80005 27.3711 4.80005 24.3696C4.80005 21.368 7.18786 18.9348 10.1334 18.9348C13.0789 18.9348 15.4667 21.368 15.4667 24.3696ZM6.09798 24.3696C6.09798 26.6407 7.90469 28.4818 10.1334 28.4818C12.3621 28.4818 14.1688 26.6407 14.1688 24.3696C14.1688 22.0985 12.3621 20.2574 10.1334 20.2574C7.90469 20.2574 6.09798 22.0985 6.09798 24.3696Z" fill="#4E4D4D" fill-opacity="0.5"/>
<path d="M10.9922 25.2188C10.652 25.2188 10.3762 24.943 10.3762 24.6028V24.6028C10.3762 24.2626 10.652 23.9869 10.9922 23.9869H20.4269C20.7671 23.9869 21.0429 24.2626 21.0429 24.6028V24.6028C21.0429 24.943 20.7671 25.2188 20.4269 25.2188H10.9922Z" fill="#84C77A"/>
<path d="M15.12 16.7722C15.3115 16.4657 15.7253 16.3552 16.0441 16.5253V16.5253C16.363 16.6953 16.4662 17.0817 16.2747 17.3881L11.6349 24.8131C11.4434 25.1195 11.0297 25.2301 10.7108 25.06V25.06C10.392 24.8899 10.2887 24.5036 10.4802 24.1971L15.12 16.7722Z" fill="#84C77A"/>
<path d="M15.1469 17.3882C14.9554 17.0817 15.0587 16.6954 15.3775 16.5253V16.5253C15.6964 16.3552 16.1101 16.4658 16.3016 16.7722L20.9414 24.1971C21.133 24.5036 21.0297 24.8899 20.7109 25.06V25.06C20.392 25.2301 19.9783 25.1195 19.7867 24.8131L15.1469 17.3882Z" fill="#84C77A"/>
<path d="M15.8668 15.1304C15.7195 15.1304 15.6001 15.2498 15.6001 15.397V16.4941C15.6001 16.6414 15.7195 16.7608 15.8668 16.7608V16.7608C16.014 16.7608 16.1334 16.6414 16.1334 16.4941V15.397C16.1334 15.2498 16.014 15.1304 15.8668 15.1304V15.1304Z" fill="#868686"/>
<path d="M25.2748 16.4551C25.615 16.4551 25.8907 16.7308 25.8907 17.071V17.071C25.8907 17.4112 25.615 17.687 25.2748 17.687L15.84 17.687C15.4998 17.687 15.2241 17.4112 15.2241 17.071V17.071C15.2241 16.7308 15.4998 16.4551 15.84 16.4551L25.2748 16.4551Z" fill="#84C77A"/>
<path d="M17.4927 14.8042C17.7075 14.8355 17.8668 15.0197 17.8668 15.2368V15.2368C17.8668 15.4782 17.6711 15.6739 17.4297 15.6739H14.8324C14.4464 15.6739 14.1335 15.361 14.1335 14.9749V14.9749C14.1335 14.5091 14.5806 14.1736 15.0278 14.3038L16.0002 14.5869L17.4927 14.8042Z" fill="#958067"/>
<path d="M21.1468 24.9016C20.9553 25.2081 20.5416 25.3187 20.2227 25.1486V25.1486C19.9038 24.9785 19.8006 24.5922 19.9921 24.2857L24.6319 16.8608C24.8234 16.5543 25.2372 16.4437 25.556 16.6138V16.6138C25.8749 16.7839 25.9781 17.1702 25.7866 17.4767L21.1468 24.9016Z" fill="#84C77A"/>
<path d="M24.8074 17.4763C24.6561 17.1479 24.7861 16.7329 25.0978 16.5496V16.5496C25.4095 16.3662 25.7848 16.4838 25.9361 16.8123L29.304 24.1248C29.4553 24.4533 29.3253 24.8682 29.0136 25.0516V25.0516C28.7019 25.235 28.3266 25.1174 28.1753 24.7889L24.8074 17.4763Z" fill="#84C77A"/>
<path d="M25.635 15.1815C25.7842 14.8531 26.1794 14.6886 26.5176 14.814V14.814C26.8558 14.9395 27.009 15.3074 26.8597 15.6357L26.0285 17.4639C25.8792 17.7923 25.484 17.9568 25.1458 17.8314V17.8314C24.8076 17.7059 24.6545 17.338 24.8038 17.0097L25.635 15.1815Z" fill="#84C77A"/>
<path d="M26.146 15.8702C25.9059 15.8735 25.6925 15.6825 25.6694 15.4435V15.4435C25.6463 15.2045 25.8221 15.0081 26.0622 15.0048L28.4558 14.9717C28.6959 14.9684 28.9093 15.1594 28.9324 15.3984V15.3984C28.9556 15.6374 28.7797 15.8338 28.5396 15.8371L26.146 15.8702Z" fill="#84C77A"/>
<path d="M21.1199 24.2857C21.3114 24.5921 21.2082 24.9785 20.8893 25.1485V25.1485C20.5705 25.3186 20.1567 25.2081 19.9652 24.9016L15.3254 17.4767C15.1339 17.1702 15.2371 16.7839 15.556 16.6138V16.6138C15.8749 16.4437 16.2886 16.5543 16.4801 16.8608L21.1199 24.2857Z" fill="#84C77A"/>
</svg>
