<svg width="37" height="38" viewBox="0 0 37 38" fill="none" xmlns="http://www.w3.org/2000/svg">
<rect width="37" height="38" rx="10" fill="#C4C4C4" fill-opacity="0.5"/>
<path d="M8 21H29C29 21 27.3295 22.9917 27.3295 24.5C27.3295 26.0083 29 28 29 28H8V21Z" fill="#FFF5DA"/>
<path d="M8 22C8 21.4477 8.44772 21 9 21H29V22H8Z" fill="#7A8CCC"/>
<path d="M8 27H29V28H9C8.44772 28 8 27.5523 8 27Z" fill="#7A8CCC"/>
<path d="M9.8667 14H31.5734C31.5734 14 29.8467 15.8494 29.8467 17.25C29.8467 18.6506 31.5734 20.5 31.5734 20.5H9.8667V14Z" fill="#FFF5DA"/>
<path d="M9.37329 14.4333C9.37329 14.194 9.5673 14 9.80662 14H31.5733V14.4333H9.37329Z" fill="#7FAD77"/>
<path d="M9.37329 20.0664H31.5733V20.4997H9.80662C9.5673 20.4997 9.37329 20.3057 9.37329 20.0664Z" fill="#7FAD77"/>
<path d="M9.86662 20.5002C9.59416 20.5002 9.37329 20.2794 9.37329 20.0069V14.4936C9.37329 14.2211 9.59416 14.0002 9.86662 14.0002V20.5002Z" fill="#7FAD77"/>
<path d="M14.3065 18.5H28.6132V18.625H14.3065V18.5Z" fill="#E1D8BF"/>
<path d="M11.84 16.5H21.7066V16.625H11.84V16.5Z" fill="#E1D8BF"/>
<path d="M7.89343 8.49976H29.6001C29.6001 8.49976 27.8734 10.0646 27.8734 11.2498C27.8734 12.4349 29.6001 13.9998 29.6001 13.9998H7.89343V8.49976Z" fill="#FFF5DA"/>
<path d="M7.40002 8.86642C7.40002 8.66392 7.56419 8.49976 7.76669 8.49976H29.6V8.86642H7.40002Z" fill="#A585B5"/>
<path d="M11.3467 11.9998H25.6533V12.1248H11.3467V11.9998Z" fill="#E1D8BF"/>
<path d="M8.88013 9.99976H18.7468V10.1248H8.88013V9.99976Z" fill="#E1D8BF"/>
<path d="M7.40002 13.6333H29.6V14H7.76669C7.56419 14 7.40002 13.8358 7.40002 13.6333Z" fill="#A585B5"/>
<path d="M7.89336 13.9998C7.6209 13.9998 7.40002 13.7789 7.40002 13.5064V8.99309C7.40002 8.72063 7.6209 8.49976 7.89336 8.49976V13.9998Z" fill="#A585B5"/>
</svg>
