<svg width="48" height="48" viewBox="0 0 48 48" fill="none" xmlns="http://www.w3.org/2000/svg">
<path d="M23.6832 46.5C35.9561 46.5 45.8665 36.4048 45.8665 24C45.8665 11.5952 35.9561 1.5 23.6832 1.5C11.4104 1.5 1.5 11.5952 1.5 24C1.5 36.4048 11.4104 46.5 23.6832 46.5Z" stroke="#496ECD" stroke-opacity="0.5" stroke-width="3"/>
<path d="M33.5784 27.321C30.5303 30.4157 25.5788 30.4058 22.5188 27.299C19.4588 24.1921 19.4491 19.1648 22.4971 16.07C25.5452 12.9753 30.4967 12.9852 33.5567 16.092C36.6167 19.1989 36.6264 24.2262 33.5784 27.321ZM23.8731 17.467C21.582 19.7932 21.5893 23.5721 23.8893 25.9074C26.1894 28.2428 29.9113 28.2502 32.2024 25.924C34.4935 23.5978 34.4863 19.8189 32.1862 17.4836C29.8861 15.1482 26.1642 15.1408 23.8731 17.467Z" fill="#C4C4C4"/>
<ellipse rx="6.31666" ry="6.29199" transform="matrix(0.701713 0.71246 -0.701713 0.71246 28.0378 21.6956)" fill="#C8DAFE"/>
<path d="M25.174 18.4937C25.0036 18.1995 25.0996 17.8176 25.4045 17.675C26.0779 17.3599 26.8032 17.1686 27.5467 17.1117C28.292 17.0547 29.0403 17.1339 29.7562 17.344C30.077 17.4381 30.2289 17.7982 30.1065 18.114V18.114C29.984 18.4303 29.6327 18.5815 29.3092 18.4949C28.767 18.3497 28.2038 18.2968 27.6425 18.3398C27.0815 18.3827 26.5332 18.5206 26.0202 18.7464C25.7134 18.8814 25.3437 18.7868 25.174 18.4937V18.4937Z" fill="#EFF4FF"/>
<path d="M22.6989 25.2407L24.5457 27.1159L15.6812 36.1161C15.2937 36.5096 14.6653 36.5096 14.2778 36.1161L13.8344 35.6659C13.4468 35.2724 13.4468 34.6345 13.8344 34.241L22.6989 25.2407Z" fill="#C4C4C4"/>
</svg>
